<mxfile host="app.diagrams.net" agent="Mozilla/5.0 (Windows NT 10.0; Win64; x64) AppleWebKit/537.36 (KHTML, like Gecko) Chrome/129.0.0.0 Safari/537.36" version="24.8.6">
  <diagram id="C5RBs43oDa-KdzZeNtuy" name="Page-1">
    <mxGraphModel dx="836" dy="443" grid="1" gridSize="10" guides="1" tooltips="1" connect="1" arrows="1" fold="1" page="1" pageScale="1" pageWidth="827" pageHeight="1169" math="0" shadow="0">
      <root>
        <mxCell id="WIyWlLk6GJQsqaUBKTNV-0" />
        <mxCell id="WIyWlLk6GJQsqaUBKTNV-1" parent="WIyWlLk6GJQsqaUBKTNV-0" />
        <mxCell id="YPMW8Z7sCAQNTXrsxOTg-2" value="" style="edgeStyle=orthogonalEdgeStyle;rounded=0;orthogonalLoop=1;jettySize=auto;html=1;" edge="1" parent="WIyWlLk6GJQsqaUBKTNV-1" source="YPMW8Z7sCAQNTXrsxOTg-0" target="YPMW8Z7sCAQNTXrsxOTg-1">
          <mxGeometry relative="1" as="geometry" />
        </mxCell>
        <mxCell id="YPMW8Z7sCAQNTXrsxOTg-0" value="bắt đầu" style="ellipse;whiteSpace=wrap;html=1;" vertex="1" parent="WIyWlLk6GJQsqaUBKTNV-1">
          <mxGeometry x="350" y="80" width="120" height="80" as="geometry" />
        </mxCell>
        <mxCell id="YPMW8Z7sCAQNTXrsxOTg-4" value="" style="edgeStyle=orthogonalEdgeStyle;rounded=0;orthogonalLoop=1;jettySize=auto;html=1;" edge="1" parent="WIyWlLk6GJQsqaUBKTNV-1" source="YPMW8Z7sCAQNTXrsxOTg-1" target="YPMW8Z7sCAQNTXrsxOTg-3">
          <mxGeometry relative="1" as="geometry" />
        </mxCell>
        <mxCell id="YPMW8Z7sCAQNTXrsxOTg-1" value="nhập số n" style="shape=parallelogram;perimeter=parallelogramPerimeter;whiteSpace=wrap;html=1;fixedSize=1;" vertex="1" parent="WIyWlLk6GJQsqaUBKTNV-1">
          <mxGeometry x="350" y="250" width="120" height="60" as="geometry" />
        </mxCell>
        <mxCell id="YPMW8Z7sCAQNTXrsxOTg-6" value="" style="edgeStyle=orthogonalEdgeStyle;rounded=0;orthogonalLoop=1;jettySize=auto;html=1;" edge="1" parent="WIyWlLk6GJQsqaUBKTNV-1" source="YPMW8Z7sCAQNTXrsxOTg-3" target="YPMW8Z7sCAQNTXrsxOTg-5">
          <mxGeometry relative="1" as="geometry" />
        </mxCell>
        <mxCell id="YPMW8Z7sCAQNTXrsxOTg-3" value="tính: n % 2" style="whiteSpace=wrap;html=1;" vertex="1" parent="WIyWlLk6GJQsqaUBKTNV-1">
          <mxGeometry x="350" y="390" width="120" height="60" as="geometry" />
        </mxCell>
        <mxCell id="YPMW8Z7sCAQNTXrsxOTg-8" value="" style="edgeStyle=orthogonalEdgeStyle;rounded=0;orthogonalLoop=1;jettySize=auto;html=1;" edge="1" parent="WIyWlLk6GJQsqaUBKTNV-1" source="YPMW8Z7sCAQNTXrsxOTg-5" target="YPMW8Z7sCAQNTXrsxOTg-7">
          <mxGeometry relative="1" as="geometry" />
        </mxCell>
        <mxCell id="YPMW8Z7sCAQNTXrsxOTg-10" value="" style="edgeStyle=orthogonalEdgeStyle;rounded=0;orthogonalLoop=1;jettySize=auto;html=1;" edge="1" parent="WIyWlLk6GJQsqaUBKTNV-1" source="YPMW8Z7sCAQNTXrsxOTg-5" target="YPMW8Z7sCAQNTXrsxOTg-9">
          <mxGeometry relative="1" as="geometry" />
        </mxCell>
        <mxCell id="YPMW8Z7sCAQNTXrsxOTg-5" value="n % 2 == 0" style="rhombus;whiteSpace=wrap;html=1;" vertex="1" parent="WIyWlLk6GJQsqaUBKTNV-1">
          <mxGeometry x="370" y="520" width="80" height="80" as="geometry" />
        </mxCell>
        <mxCell id="YPMW8Z7sCAQNTXrsxOTg-16" style="edgeStyle=orthogonalEdgeStyle;rounded=0;orthogonalLoop=1;jettySize=auto;html=1;entryX=1;entryY=0.5;entryDx=0;entryDy=0;" edge="1" parent="WIyWlLk6GJQsqaUBKTNV-1" source="YPMW8Z7sCAQNTXrsxOTg-7" target="YPMW8Z7sCAQNTXrsxOTg-15">
          <mxGeometry relative="1" as="geometry">
            <mxPoint x="570" y="882" as="targetPoint" />
            <Array as="points">
              <mxPoint x="570" y="880" />
            </Array>
          </mxGeometry>
        </mxCell>
        <mxCell id="YPMW8Z7sCAQNTXrsxOTg-7" value="in &quot; số lẻ &quot;" style="shape=parallelogram;perimeter=parallelogramPerimeter;whiteSpace=wrap;html=1;fixedSize=1;" vertex="1" parent="WIyWlLk6GJQsqaUBKTNV-1">
          <mxGeometry x="510" y="530" width="120" height="60" as="geometry" />
        </mxCell>
        <mxCell id="YPMW8Z7sCAQNTXrsxOTg-14" value="" style="edgeStyle=orthogonalEdgeStyle;rounded=0;orthogonalLoop=1;jettySize=auto;html=1;" edge="1" parent="WIyWlLk6GJQsqaUBKTNV-1" source="YPMW8Z7sCAQNTXrsxOTg-9">
          <mxGeometry relative="1" as="geometry">
            <mxPoint x="410" y="840" as="targetPoint" />
          </mxGeometry>
        </mxCell>
        <mxCell id="YPMW8Z7sCAQNTXrsxOTg-9" value="in &quot; số chẵn &quot;" style="shape=parallelogram;perimeter=parallelogramPerimeter;whiteSpace=wrap;html=1;fixedSize=1;" vertex="1" parent="WIyWlLk6GJQsqaUBKTNV-1">
          <mxGeometry x="350" y="690" width="120" height="60" as="geometry" />
        </mxCell>
        <mxCell id="YPMW8Z7sCAQNTXrsxOTg-11" value="sai" style="text;html=1;align=center;verticalAlign=middle;resizable=0;points=[];autosize=1;strokeColor=none;fillColor=none;" vertex="1" parent="WIyWlLk6GJQsqaUBKTNV-1">
          <mxGeometry x="450" y="528" width="40" height="30" as="geometry" />
        </mxCell>
        <mxCell id="YPMW8Z7sCAQNTXrsxOTg-12" value="đúng" style="text;html=1;align=center;verticalAlign=middle;resizable=0;points=[];autosize=1;strokeColor=none;fillColor=none;" vertex="1" parent="WIyWlLk6GJQsqaUBKTNV-1">
          <mxGeometry x="414" y="600" width="50" height="30" as="geometry" />
        </mxCell>
        <mxCell id="YPMW8Z7sCAQNTXrsxOTg-15" value="kết thúc" style="ellipse;whiteSpace=wrap;html=1;" vertex="1" parent="WIyWlLk6GJQsqaUBKTNV-1">
          <mxGeometry x="350" y="840" width="120" height="80" as="geometry" />
        </mxCell>
      </root>
    </mxGraphModel>
  </diagram>
</mxfile>
